<svg xmlns="http://www.w3.org/2000/svg" xmlns:xlink="http://www.w3.org/1999/xlink" width="300" height="300" viewBox="75 50 300 200" style="display: block; overflow: hidden; padding: 0; margin: 0;">
<svg xmlns="http://www.w3.org/2000/svg" class="role-diagram-draw-area" style="overflow: visible;">
  <g class="shapes-region" style="stroke: black; fill: none;">
    <g class="composite-shape"><path class="real" d=" M150,155 C150,152.24 152.24,150 155,150 C157.76,150 160,152.24 160,155 C160,157.76 157.76,160 155,160 C152.24,160 150,157.76 150,155 Z" style="stroke-width: 1; stroke: rgb(0, 0, 0); fill: none; fill-opacity: 1;"/></g>
    <g class="composite-shape"><path class="real" d=" M200,205 C200,202.24 202.24,200 205,200 C207.76,200 210,202.24 210,205 C210,207.76 207.76,210 205,210 C202.24,210 200,207.76 200,205 Z" style="stroke-width: 1; stroke: rgb(0, 0, 0); fill: none; fill-opacity: 1;"/></g>
    <g class="composite-shape"><path class="real" d=" M250,205 C250,202.24 252.24,200 255,200 C257.76,200 260,202.24 260,205 C260,207.76 257.76,210 255,210 C252.24,210 250,207.76 250,205 Z" style="stroke-width: 1; stroke: rgb(0, 0, 0); fill: none; fill-opacity: 1;"/></g>
    <g class="composite-shape"><path class="real" d=" M250,105 C250,102.24 252.24,100 255,100 C257.76,100 260,102.24 260,105 C260,107.76 257.76,110 255,110 C252.24,110 250,107.76 250,105 Z" style="stroke-width: 1; stroke: rgb(0, 0, 0); fill: none; fill-opacity: 1;"/></g>
    <g class="composite-shape"><path class="real" d=" M200,105 C200,102.24 202.24,100 205,100 C207.76,100 210,102.24 210,105 C210,107.76 207.76,110 205,110 C202.24,110 200,107.76 200,105 Z" style="stroke-width: 1; stroke: rgb(0, 0, 0); fill: none; fill-opacity: 1;"/></g>
    <g class="arrow-line"><path class="connection real" stroke-dasharray="" d="  M160,155 L198.75,106.56" style="stroke: rgb(0, 0, 0); stroke-width: 1; fill: none; fill-opacity: 1;"/><g stroke="#000" transform="matrix(-0.6246976608044968,0.7808667188358009,-0.7808667188358009,-0.6246976608044968,200.00000000000003,105)" style="stroke: rgb(0, 0, 0); stroke-width: 1;"><path d=" M6.56,-1.97 Q2.98,-0.27 0,0 Q2.98,0.27 6.56,1.97"/></g></g>
    <g class="arrow-line"><path class="connection real" stroke-dasharray="" d="  M160,155 L198.75,203.44" style="stroke: rgb(0, 0, 0); stroke-width: 1; fill: none; fill-opacity: 1;"/><g stroke="#000" transform="matrix(-0.6246976608044965,-0.7808667188358013,0.7808667188358013,-0.6246976608044965,200,205)" style="stroke: rgb(0, 0, 0); stroke-width: 1;"><path d=" M6.56,-1.97 Q2.98,-0.27 0,0 Q2.98,0.27 6.56,1.97"/></g></g>
    <g class="arrow-line"><path class="connection real" stroke-dasharray="" d="  M210,205 L248,205" style="stroke: rgb(0, 0, 0); stroke-width: 1; fill: none; fill-opacity: 1;"/><g stroke="#000" transform="matrix(-1,1.2246467991473532e-16,-1.2246467991473532e-16,-1,249.99999999999997,205.00000000000003)" style="stroke: rgb(0, 0, 0); stroke-width: 1;"><path d=" M6.56,-1.97 Q2.98,-0.27 0,0 Q2.98,0.27 6.56,1.97"/></g></g>
    <g class="arrow-line"><path class="connection real" stroke-dasharray="6 6" d="  M210,105 L248,105" style="stroke: rgb(0, 0, 0); stroke-width: 1; fill: none; fill-opacity: 1;"/><g stroke="#000" transform="matrix(-1,1.2246467991473532e-16,-1.2246467991473532e-16,-1,250,105)" style="stroke: rgb(0, 0, 0); stroke-width: 1;"><path d=" M6.56,-1.97 Q2.98,-0.27 0,0 Q2.98,0.27 6.56,1.97"/></g></g>
    <g class="arrow-line"><path class="connection real" stroke-dasharray="6 6" d="  M210,105 L249.26,203.14" style="stroke: rgb(0, 0, 0); stroke-width: 1; fill: none; fill-opacity: 1;"/><g stroke="#000" transform="matrix(-0.3713678355502353,-0.9284858268809134,0.9284858268809134,-0.3713678355502353,250,205)" style="stroke: rgb(0, 0, 0); stroke-width: 1;"><path d=" M6.56,-1.97 Q2.98,-0.27 0,0 Q2.98,0.27 6.56,1.97"/></g></g>
  </g>
</svg>
<svg xmlns="http://www.w3.org/2000/svg" xmlns:xlink="http://www.w3.org/1999/xlink" width="300" height="300" style="font-family:Asana-Math, Asana;background:#FFF;">
  <g><g><g><text x="162.5" y="120" style="white-space:pre;stroke:none;fill:rgb(0,0,0);fill-opacity:1;font-size:8.4px;font-family:&quot;Times New Roman&quot;, Times, serif;font-weight:400;font-style:normal;dominant-baseline:text-before-edge;text-decoration:none solid rgb(0, 0, 0);">努力</text></g></g></g>
  <g><g><g><text x="162.5" y="180" style="white-space:pre;stroke:none;fill:rgb(0,0,0);fill-opacity:1;font-size:8.4px;font-family:&quot;Times New Roman&quot;, Times, serif;font-weight:400;font-style:normal;dominant-baseline:text-before-edge;text-decoration:none solid rgb(0, 0, 0);">躺平</text></g></g></g>
  <g><g><g><text x="187.5" y="120" style="white-space:pre;stroke:none;fill:rgb(0,0,0);fill-opacity:1;font-size:10.5px;font-family:&quot;Times New Roman&quot;, Times, serif;font-weight:400;font-style:normal;dominant-baseline:text-before-edge;text-decoration:none solid rgb(0, 0, 0);">e</text></g></g></g>
  <g><g><g><text x="227.5" y="88.5" style="white-space:pre;stroke:none;fill:rgb(0,0,0);fill-opacity:1;font-size:10.5px;font-family:&quot;Times New Roman&quot;, Times, serif;font-weight:400;font-style:normal;dominant-baseline:text-before-edge;text-decoration:none solid rgb(0, 0, 0);">n</text></g></g></g>
  <g><g><g><text x="262.5" y="99" style="white-space:pre;stroke:none;fill:rgb(0,0,0);fill-opacity:1;font-size:10.5px;font-family:&quot;Times New Roman&quot;, Times, serif;font-weight:400;font-style:normal;dominant-baseline:text-before-edge;text-decoration:none solid rgb(0, 0, 0);">u</text></g><g><text x="267.75" y="104" style="white-space:pre;stroke:none;fill:rgb(0,0,0);fill-opacity:1;font-size:5.25px;font-family:&quot;Times New Roman&quot;, Times, serif;font-weight:400;font-style:normal;dominant-baseline:text-before-edge;text-decoration:none solid rgb(0, 0, 0);">1</text></g></g></g>
  <g><g><g><text x="262.5" y="198.5" style="white-space:pre;stroke:none;fill:rgb(0,0,0);fill-opacity:1;font-size:10.5px;font-family:&quot;Times New Roman&quot;, Times, serif;font-weight:400;font-style:normal;dominant-baseline:text-before-edge;text-decoration:none solid rgb(0, 0, 0);">u</text></g><g><text x="267.75" y="203.5" style="white-space:pre;stroke:none;fill:rgb(0,0,0);fill-opacity:1;font-size:5.25px;font-family:&quot;Times New Roman&quot;, Times, serif;font-weight:400;font-style:normal;dominant-baseline:text-before-edge;text-decoration:none solid rgb(0, 0, 0);">0</text></g></g></g>
</svg>
</svg>
